# xmcd
#
# Track frame offsets: 
#        150
#        3610
#        6887
#        9865
#        14092
#        19192
#        22260
#        24002
#        25792
#        28494
#        30280
#        32062
#        33885
#        35925
#        37385
#        39357
#        40757
#        43277
#        46977
#        49420
#        51735
#        53207
#        55052
#        57064
#        58595
#        60660
#        63470
#        66750
#        69467
#        71090
#        72610
#        74262
#        75807
#        77370
#        79022
#        80575
#        83557
#        86695
#        89175
#        90635
#        92782
#        96095
#
# Disc length: 1319 seconds
#
# Revision: 0
# Processed by: cddbd v1.5.2PL0 Copyright (c) Steve Scherf et al.
# Submitted via: ExactAudioCopy v0.99pb5
#
DISCID=3905252a
DTITLE=Fred Sokolow - Basic Blues For Guitar
DYEAR=1996
DGENRE=Instruction
TTITLE0=Exercise 1 - Country  Blues
TTITLE1=Exercise 2
TTITLE2=Exercise 3
TTITLE3=Exercise 4
TTITLE4=Exercise 5
TTITLE5=Exercise 6 - Chuck Berry Style Blues
TTITLE6=Exercise 7
TTITLE7=Exercise 8
TTITLE8=Exercise 9 - Modern Blues Styles
TTITLE9=Exercise 10
TTITLE10=Exercise 11
TTITLE11=Exercise 12
TTITLE12=Exercise 13
TTITLE13=Exercise 14
TTITLE14=Exercise 15
TTITLE15=Exercise 16
TTITLE16=Exercise 17
TTITLE17=Exercise 18
TTITLE18=Exercise 19
TTITLE19=Exercise 20 - R&B, Rock And Country Rock
TTITLE20=Exercise 21
TTITLE21=Exercise 22
TTITLE22=Exercise 23
TTITLE23=Exercise 24
TTITLE24=Exercise 25
TTITLE25=Exercise 26
TTITLE26=Exercise 27 - Blues With A Jazz Feeling
TTITLE27=Exercise 28
TTITLE28=Exercise 29 - Jazz With A Blues Feeling
TTITLE29=Exercise 30A
TTITLE30=Exercise 30B
TTITLE31=Exercise 30C
TTITLE32=Exercise 30D
TTITLE33=Exercise 30E
TTITLE34=Exercise 30F
TTITLE35=Exercise 31 - Slide Guitar
TTITLE36=Exercise 32
TTITLE37=Exercise 33
TTITLE38=Exercise 34
TTITLE39=Exercise 35
TTITLE40=Exercise 36
TTITLE41=Exercise 37
EXTD=
EXTT0=
EXTT1=
EXTT2=
EXTT3=
EXTT4=
EXTT5=
EXTT6=
EXTT7=
EXTT8=
EXTT9=
EXTT10=
EXTT11=
EXTT12=
EXTT13=
EXTT14=
EXTT15=
EXTT16=
EXTT17=
EXTT18=
EXTT19=
EXTT20=
EXTT21=
EXTT22=
EXTT23=
EXTT24=
EXTT25=
EXTT26=
EXTT27=
EXTT28=
EXTT29=
EXTT30=
EXTT31=
EXTT32=
EXTT33=
EXTT34=
EXTT35=
EXTT36=
EXTT37=
EXTT38=
EXTT39=
EXTT40=
EXTT41=
PLAYORDER=
